%TF.GenerationSoftware,KiCad,Pcbnew,10.99.0-unknown-f35c579a3f~188~ubuntu24.04.1*%
%TF.CreationDate,2026-05-20T13:26:52+02:00*%
%TF.ProjectId,PCB_QuiBot,5043425f-5175-4694-926f-742e6b696361,rev?*%
%TF.SameCoordinates,Original*%
%TF.FileFunction,Soldermask,Top*%
%TF.FilePolarity,Negative*%
%FSLAX46Y46*%
G04 Gerber Fmt 4.6, Leading zero omitted, Abs format (unit mm)*
G04 Created by KiCad (PCBNEW 10.99.0-unknown-f35c579a3f~188~ubuntu24.04.1) date 2026-05-20 13:26:52*
%MOMM*%
%LPD*%
G01*
G04 APERTURE LIST*
G04 Aperture macros list*
%AMRoundRect*
0 Rectangle with rounded corners*
0 $1 Rounding radius*
0 $2 $3 $4 $5 $6 $7 $8 $9 X,Y pos of 4 corners*
0 Add a 4 corners polygon primitive as box body*
4,1,4,$2,$3,$4,$5,$6,$7,$8,$9,$2,$3,0*
0 Add four circle primitives for the rounded corners*
1,1,$1+$1,$2,$3*
1,1,$1+$1,$4,$5*
1,1,$1+$1,$6,$7*
1,1,$1+$1,$8,$9*
0 Add four rect primitives between the rounded corners*
20,1,$1+$1,$2,$3,$4,$5,0*
20,1,$1+$1,$4,$5,$6,$7,0*
20,1,$1+$1,$6,$7,$8,$9,0*
20,1,$1+$1,$8,$9,$2,$3,0*%
%AMFreePoly0*
4,1,23,0.500000,-0.750000,0.000000,-0.750000,0.000000,-0.745722,-0.065263,-0.745722,-0.191342,-0.711940,-0.304381,-0.646677,-0.396677,-0.554381,-0.461940,-0.441342,-0.495722,-0.315263,-0.495722,-0.250000,-0.500000,-0.250000,-0.500000,0.250000,-0.495722,0.250000,-0.495722,0.315263,-0.461940,0.441342,-0.396677,0.554381,-0.304381,0.646677,-0.191342,0.711940,-0.065263,0.745722,0.000000,0.745722,
0.000000,0.750000,0.500000,0.750000,0.500000,-0.750000,0.500000,-0.750000,$1*%
%AMFreePoly1*
4,1,23,0.000000,0.745722,0.065263,0.745722,0.191342,0.711940,0.304381,0.646677,0.396677,0.554381,0.461940,0.441342,0.495722,0.315263,0.495722,0.250000,0.500000,0.250000,0.500000,-0.250000,0.495722,-0.250000,0.495722,-0.315263,0.461940,-0.441342,0.396677,-0.554381,0.304381,-0.646677,0.191342,-0.711940,0.065263,-0.745722,0.000000,-0.745722,0.000000,-0.750000,-0.500000,-0.750000,
-0.500000,0.750000,0.000000,0.750000,0.000000,0.745722,0.000000,0.745722,$1*%
G04 Aperture macros list end*
%ADD10C,1.700000*%
%ADD11R,1.700000X1.700000*%
%ADD12C,1.600000*%
%ADD13RoundRect,0.250000X-0.550000X0.550000X-0.550000X-0.550000X0.550000X-0.550000X0.550000X0.550000X0*%
%ADD14FreePoly0,90.000000*%
%ADD15FreePoly1,90.000000*%
%ADD16C,1.371600*%
%ADD17R,1.050000X1.500000*%
%ADD18O,1.050000X1.500000*%
%ADD19C,1.905000*%
%ADD20FreePoly0,270.000000*%
%ADD21FreePoly1,270.000000*%
%ADD22RoundRect,0.250000X0.550000X-0.550000X0.550000X0.550000X-0.550000X0.550000X-0.550000X-0.550000X0*%
%ADD23RoundRect,0.250000X0.750000X0.750000X-0.750000X0.750000X-0.750000X-0.750000X0.750000X-0.750000X0*%
%ADD24C,2.000000*%
G04 APERTURE END LIST*
%TO.C,RA0*%
G36*
X182257000Y-61934000D02*
G01*
X183757000Y-61934000D01*
X183757000Y-62234000D01*
X182257000Y-62234000D01*
X182257000Y-61934000D01*
G37*
%TO.C,SY0*%
G36*
X126257000Y-82784000D02*
G01*
X127757000Y-82784000D01*
X127757000Y-83084000D01*
X126257000Y-83084000D01*
X126257000Y-82784000D01*
G37*
%TO.C,RW2*%
G36*
X182257000Y-94784000D02*
G01*
X183757000Y-94784000D01*
X183757000Y-95084000D01*
X182257000Y-95084000D01*
X182257000Y-94784000D01*
G37*
%TO.C,SY2*%
G36*
X126257000Y-92284000D02*
G01*
X127757000Y-92284000D01*
X127757000Y-92584000D01*
X126257000Y-92584000D01*
X126257000Y-92284000D01*
G37*
%TO.C,SY1*%
G36*
X126257000Y-86434000D02*
G01*
X127757000Y-86434000D01*
X127757000Y-86734000D01*
X126257000Y-86734000D01*
X126257000Y-86434000D01*
G37*
%TO.C,RW0*%
G36*
X182257000Y-83584000D02*
G01*
X183757000Y-83584000D01*
X183757000Y-83884000D01*
X182257000Y-83884000D01*
X182257000Y-83584000D01*
G37*
%TO.C,LA2*%
G36*
X110257000Y-73084000D02*
G01*
X111757000Y-73084000D01*
X111757000Y-73384000D01*
X110257000Y-73384000D01*
X110257000Y-73084000D01*
G37*
%TO.C,LW0*%
G36*
X110257000Y-82784000D02*
G01*
X111757000Y-82784000D01*
X111757000Y-83084000D01*
X110257000Y-83084000D01*
X110257000Y-82784000D01*
G37*
%TO.C,LW2*%
G36*
X110257000Y-92434000D02*
G01*
X111757000Y-92434000D01*
X111757000Y-92734000D01*
X110257000Y-92734000D01*
X110257000Y-92434000D01*
G37*
%TO.C,RA1*%
G36*
X182257000Y-66434000D02*
G01*
X183757000Y-66434000D01*
X183757000Y-66734000D01*
X182257000Y-66734000D01*
X182257000Y-66434000D01*
G37*
%TO.C,RA2*%
G36*
X182257000Y-73784000D02*
G01*
X183757000Y-73784000D01*
X183757000Y-74084000D01*
X182257000Y-74084000D01*
X182257000Y-73784000D01*
G37*
%TO.C,RW1*%
G36*
X182257000Y-87434000D02*
G01*
X183757000Y-87434000D01*
X183757000Y-87734000D01*
X182257000Y-87734000D01*
X182257000Y-87434000D01*
G37*
%TO.C,LA1*%
G36*
X110257000Y-66784000D02*
G01*
X111757000Y-66784000D01*
X111757000Y-67084000D01*
X110257000Y-67084000D01*
X110257000Y-66784000D01*
G37*
%TO.C,LW1*%
G36*
X110257000Y-86434000D02*
G01*
X111757000Y-86434000D01*
X111757000Y-86734000D01*
X110257000Y-86734000D01*
X110257000Y-86434000D01*
G37*
%TO.C,LA0*%
G36*
X110257000Y-62584000D02*
G01*
X111757000Y-62584000D01*
X111757000Y-62884000D01*
X110257000Y-62884000D01*
X110257000Y-62584000D01*
G37*
%TD*%
D10*
%TO.C,RASP1*%
X174842000Y-115149000D03*
X172302000Y-115149000D03*
X174842000Y-112609000D03*
X172302000Y-112609000D03*
X174842000Y-110069000D03*
X172302000Y-110069000D03*
X174842000Y-107529000D03*
X172302000Y-107529000D03*
X174842000Y-104989000D03*
X172302000Y-104989000D03*
X174842000Y-102449000D03*
X172302000Y-102449000D03*
X174842000Y-99909000D03*
X172302000Y-99909000D03*
X174842000Y-97369000D03*
X172302000Y-97369000D03*
X174842000Y-94829000D03*
X172302000Y-94829000D03*
X174842000Y-92289000D03*
X172302000Y-92289000D03*
X174842000Y-89749000D03*
X172302000Y-89749000D03*
X174842000Y-87209000D03*
X172302000Y-87209000D03*
X174842000Y-84669000D03*
X172302000Y-84669000D03*
X174842000Y-82129000D03*
X172302000Y-82129000D03*
X174842000Y-79589000D03*
X172302000Y-79589000D03*
X174842000Y-77049000D03*
X172302000Y-77049000D03*
X174842000Y-74509000D03*
X172302000Y-74509000D03*
X174842000Y-71969000D03*
X172302000Y-71969000D03*
X174842000Y-69429000D03*
X172302000Y-69429000D03*
X174842000Y-66889000D03*
D11*
X172302000Y-66889000D03*
%TD*%
D12*
%TO.C,C7*%
X132264500Y-91334000D03*
D13*
X132264500Y-88834000D03*
%TD*%
D14*
%TO.C,RA0*%
X183007000Y-62734000D03*
D15*
X183007000Y-61434000D03*
%TD*%
D11*
%TO.C,MIC1*%
X186507000Y-129084000D03*
D10*
X186507000Y-131624000D03*
X186507000Y-134164000D03*
X186507000Y-136704000D03*
X186507000Y-139244000D03*
X186507000Y-141784000D03*
%TD*%
D13*
%TO.C,C9*%
X187507000Y-69084000D03*
D12*
X187507000Y-71584000D03*
%TD*%
%TO.C,R5*%
X167507000Y-91084000D03*
X167507000Y-80924000D03*
%TD*%
D16*
%TO.C,C1*%
X130507000Y-63284000D03*
X134007001Y-63284000D03*
%TD*%
D12*
%TO.C,R4*%
X167507000Y-77584000D03*
X167507000Y-67424000D03*
%TD*%
D14*
%TO.C,SY0*%
X127007000Y-83584000D03*
D15*
X127007000Y-82284000D03*
%TD*%
D11*
%TO.C,M_LW1*%
X102507000Y-83774000D03*
D10*
X102507000Y-86314000D03*
X102507000Y-88854000D03*
X102507000Y-91394000D03*
%TD*%
D12*
%TO.C,R9*%
X163507000Y-76584000D03*
X153347000Y-76584000D03*
%TD*%
D13*
%TO.C,C4*%
X115764500Y-88334000D03*
D12*
X115764500Y-90834000D03*
%TD*%
D14*
%TO.C,RW2*%
X183007000Y-95584000D03*
D15*
X183007000Y-94284000D03*
%TD*%
D13*
%TO.C,C8*%
X188007000Y-90084000D03*
D12*
X188007000Y-92584000D03*
%TD*%
D10*
%TO.C,R_WHEEL1*%
X180307000Y-81304000D03*
X180307000Y-83844000D03*
X180307000Y-86384000D03*
X180307000Y-88924000D03*
X180307000Y-91464000D03*
X180307000Y-94004000D03*
X180307000Y-96544000D03*
X180307000Y-99084000D03*
X193007000Y-81304000D03*
X193007000Y-83844000D03*
X193007000Y-86384000D03*
X193007000Y-88924000D03*
X193007000Y-91464000D03*
X193007000Y-94004000D03*
X193007000Y-96544000D03*
X193007000Y-99084000D03*
%TD*%
D11*
%TO.C,ADC1*%
X104507000Y-117084000D03*
D10*
X104507000Y-119624000D03*
X104507000Y-122164000D03*
X104507000Y-124704000D03*
X104507000Y-127244000D03*
X104507000Y-129784000D03*
X104507000Y-132324000D03*
X104507000Y-134864000D03*
X104507000Y-137404000D03*
X104507000Y-139944000D03*
%TD*%
D12*
%TO.C,R8*%
X145007000Y-81664000D03*
X145007000Y-71504000D03*
%TD*%
D17*
%TO.C,Q2*%
X128867000Y-71824000D03*
D18*
X130137000Y-71824000D03*
X131407000Y-71824000D03*
%TD*%
D19*
%TO.C,LF1*%
X165807000Y-56824000D03*
X165807000Y-54284000D03*
X160007000Y-54284000D03*
X160007000Y-56826462D03*
%TD*%
D14*
%TO.C,SY2*%
X127007000Y-93084000D03*
D15*
X127007000Y-91784000D03*
%TD*%
D20*
%TO.C,SY1*%
X127007000Y-85934000D03*
D21*
X127007000Y-87234000D03*
%TD*%
D14*
%TO.C,RW0*%
X183007000Y-84384000D03*
D15*
X183007000Y-83084000D03*
%TD*%
D14*
%TO.C,LA2*%
X111007000Y-73884000D03*
D15*
X111007000Y-72584000D03*
%TD*%
D12*
%TO.C,R10*%
X139007000Y-60504000D03*
X139007000Y-70664000D03*
%TD*%
D11*
%TO.C,G1*%
X180507000Y-106504000D03*
D10*
X180507000Y-109044000D03*
X180507000Y-111584000D03*
X180507000Y-114124000D03*
X180507000Y-116664000D03*
%TD*%
D14*
%TO.C,LW0*%
X111007000Y-83584000D03*
D15*
X111007000Y-82284000D03*
%TD*%
D19*
%TO.C,U2*%
X150507000Y-147084000D03*
X154507000Y-147084000D03*
%TD*%
D14*
%TO.C,LW2*%
X111007000Y-93234000D03*
D15*
X111007000Y-91934000D03*
%TD*%
D20*
%TO.C,RA1*%
X183007000Y-65934000D03*
D21*
X183007000Y-67234000D03*
%TD*%
D10*
%TO.C,L_ARM1*%
X107707000Y-60124000D03*
X107707000Y-62664000D03*
X107707000Y-65204000D03*
X107707000Y-67744000D03*
X107707000Y-70284000D03*
X107707000Y-72824000D03*
X107707000Y-75364000D03*
X107707000Y-77904000D03*
X120407000Y-60124000D03*
X120407000Y-62664000D03*
X120407000Y-65204000D03*
X120407000Y-67744000D03*
X120407000Y-70284000D03*
X120407000Y-72824000D03*
X120407000Y-75364000D03*
X120407000Y-77904000D03*
%TD*%
%TO.C,L_WHEEL1*%
X107577000Y-81150788D03*
X107577000Y-83690788D03*
X107577000Y-86230788D03*
X107577000Y-88770788D03*
X107577000Y-91310788D03*
X107577000Y-93850788D03*
X107577000Y-96390788D03*
X107577000Y-98930788D03*
X120277000Y-81150788D03*
X120277000Y-83690788D03*
X120277000Y-86230788D03*
X120277000Y-88770788D03*
X120277000Y-91310788D03*
X120277000Y-93850788D03*
X120277000Y-96390788D03*
X120277000Y-98930788D03*
%TD*%
D22*
%TO.C,C5*%
X116007000Y-68584000D03*
D12*
X116007000Y-66084000D03*
%TD*%
%TO.C,R6*%
X129427000Y-76584000D03*
X139587000Y-76584000D03*
%TD*%
D11*
%TO.C,M_RW1*%
X198007000Y-81804000D03*
D10*
X198007000Y-84344000D03*
X198007000Y-86884000D03*
X198007000Y-89424000D03*
%TD*%
D17*
%TO.C,Q1*%
X138507000Y-106084000D03*
D18*
X137237000Y-106084000D03*
X135967000Y-106084000D03*
%TD*%
D11*
%TO.C,E_SY1*%
X124407000Y-60244000D03*
D10*
X124407000Y-62784000D03*
X124407000Y-65324000D03*
%TD*%
D14*
%TO.C,RA2*%
X183007000Y-74584000D03*
D15*
X183007000Y-73284000D03*
%TD*%
D11*
%TO.C,M_RA1*%
X197507000Y-59304000D03*
D10*
X197507000Y-61844000D03*
X197507000Y-64384000D03*
X197507000Y-66924000D03*
%TD*%
D19*
%TO.C,LF2*%
X134307000Y-54286462D03*
X134307000Y-56826462D03*
X140107000Y-56826462D03*
X140107000Y-54284000D03*
%TD*%
D23*
%TO.C,C2*%
X109507000Y-106584000D03*
D24*
X104507000Y-106584000D03*
%TD*%
D11*
%TO.C,DIST1*%
X144007000Y-51584000D03*
D10*
X146547000Y-51584000D03*
X149087000Y-51584000D03*
X151627000Y-51584000D03*
X154167000Y-51584000D03*
X156707000Y-51584000D03*
%TD*%
D11*
%TO.C,M_SY1*%
X124407000Y-70324000D03*
D10*
X124407000Y-72864000D03*
X124407000Y-75404000D03*
X124407000Y-77944000D03*
%TD*%
D11*
%TO.C,E_RA1*%
X197507000Y-72264000D03*
D10*
X197507000Y-74804000D03*
X197507000Y-77344000D03*
%TD*%
D11*
%TO.C,COL1*%
X126007000Y-132964000D03*
D10*
X126007000Y-135504000D03*
X126007000Y-138044000D03*
X126007000Y-140584000D03*
%TD*%
D12*
%TO.C,R1*%
X160087000Y-121084000D03*
X149927000Y-121084000D03*
%TD*%
D11*
%TO.C,SERVO1*%
X132547000Y-106084000D03*
D10*
X130007000Y-106084000D03*
X127467000Y-106084000D03*
%TD*%
D11*
%TO.C,AMP1*%
X144507000Y-105544000D03*
D10*
X144507000Y-108084000D03*
X144507000Y-110624000D03*
X144507000Y-113164000D03*
X144507000Y-115704000D03*
X144507000Y-118244000D03*
X144507000Y-120784000D03*
%TD*%
D11*
%TO.C,E_LA1*%
X102507000Y-72804000D03*
D10*
X102507000Y-75344000D03*
X102507000Y-77884000D03*
%TD*%
D20*
%TO.C,RW1*%
X183007000Y-86934000D03*
D21*
X183007000Y-88234000D03*
%TD*%
D11*
%TO.C,M_LA1*%
X102507000Y-59804000D03*
D10*
X102507000Y-62344000D03*
X102507000Y-64884000D03*
X102507000Y-67424000D03*
%TD*%
D19*
%TO.C,U1*%
X143507000Y-147084000D03*
X147507000Y-147084000D03*
%TD*%
D10*
%TO.C,SYRINGE1*%
X124207000Y-81164000D03*
X124207000Y-83704000D03*
X124207000Y-86244000D03*
X124207000Y-88784000D03*
X124207000Y-91324000D03*
X124207000Y-93864000D03*
X124207000Y-96404000D03*
X124207000Y-98944000D03*
X136907000Y-81164000D03*
X136907000Y-83704000D03*
X136907000Y-86244000D03*
X136907000Y-88784000D03*
X136907000Y-91324000D03*
X136907000Y-93864000D03*
X136907000Y-96404000D03*
X136907000Y-98944000D03*
%TD*%
D20*
%TO.C,LA1*%
X111007000Y-66284000D03*
D21*
X111007000Y-67584000D03*
%TD*%
D20*
%TO.C,LW1*%
X111007000Y-85934000D03*
D21*
X111007000Y-87234000D03*
%TD*%
D22*
%TO.C,C6*%
X143507000Y-92584000D03*
D12*
X143507000Y-90084000D03*
%TD*%
D14*
%TO.C,LA0*%
X111007000Y-63384000D03*
D15*
X111007000Y-62084000D03*
%TD*%
D12*
%TO.C,R3*%
X149927000Y-113084000D03*
X160087000Y-113084000D03*
%TD*%
D11*
%TO.C,LED1*%
X131427000Y-147084000D03*
D10*
X133967000Y-147084000D03*
X136507000Y-147084000D03*
%TD*%
D12*
%TO.C,R7*%
X150007000Y-61504000D03*
X150007000Y-71664000D03*
%TD*%
D10*
%TO.C,R_ARM1*%
X180307000Y-59304000D03*
X180307000Y-61844000D03*
X180307000Y-64384000D03*
X180307000Y-66924000D03*
X180307000Y-69464000D03*
X180307000Y-72004000D03*
X180307000Y-74544000D03*
X180307000Y-77084000D03*
X193007000Y-59304000D03*
X193007000Y-61844000D03*
X193007000Y-64384000D03*
X193007000Y-66924000D03*
X193007000Y-69464000D03*
X193007000Y-72004000D03*
X193007000Y-74544000D03*
X193007000Y-77084000D03*
%TD*%
M02*
