%TF.GenerationSoftware,KiCad,Pcbnew,10.99.0-unknown-f35c579a3f~188~ubuntu24.04.1*%
%TF.CreationDate,2026-05-20T13:26:52+02:00*%
%TF.ProjectId,PCB_QuiBot,5043425f-5175-4694-926f-742e6b696361,rev?*%
%TF.SameCoordinates,Original*%
%TF.FileFunction,Profile,NP*%
%FSLAX46Y46*%
G04 Gerber Fmt 4.6, Leading zero omitted, Abs format (unit mm)*
G04 Created by KiCad (PCBNEW 10.99.0-unknown-f35c579a3f~188~ubuntu24.04.1) date 2026-05-20 13:26:52*
%MOMM*%
%LPD*%
G01*
G04 APERTURE LIST*
%TA.AperFunction,Profile*%
%ADD10C,0.100000*%
%TD*%
G04 APERTURE END LIST*
D10*
X100000000Y-52500000D02*
G75*
G02*
X102500000Y-50000000I2500000J0D01*
G01*
X100000000Y-147500000D02*
X100000000Y-52500000D01*
X102500000Y-50000000D02*
X197500000Y-50000000D01*
X102500000Y-150000000D02*
G75*
G02*
X100000000Y-147500000I0J2500000D01*
G01*
X105300000Y-53700000D02*
G75*
G02*
X102100000Y-53700000I-1600000J0D01*
G01*
X102100000Y-53700000D02*
G75*
G02*
X105300000Y-53700000I1600000J0D01*
G01*
X105300000Y-99700000D02*
G75*
G02*
X102100000Y-99700000I-1600000J0D01*
G01*
X102100000Y-99700000D02*
G75*
G02*
X105300000Y-99700000I1600000J0D01*
G01*
X127800000Y-146800000D02*
G75*
G02*
X124600000Y-146800000I-1600000J0D01*
G01*
X124600000Y-146800000D02*
G75*
G02*
X127800000Y-146800000I1600000J0D01*
G01*
X138350000Y-53800000D02*
G75*
G02*
X135850000Y-53800000I-1250000J0D01*
G01*
X135850000Y-53800000D02*
G75*
G02*
X138350000Y-53800000I1250000J0D01*
G01*
X138350000Y-57600000D02*
G75*
G02*
X135850000Y-57600000I-1250000J0D01*
G01*
X135850000Y-57600000D02*
G75*
G02*
X138350000Y-57600000I1250000J0D01*
G01*
X147300000Y-55700000D02*
G75*
G02*
X144100000Y-55700000I-1600000J0D01*
G01*
X144100000Y-55700000D02*
G75*
G02*
X147300000Y-55700000I1600000J0D01*
G01*
X155900000Y-55700000D02*
G75*
G02*
X152700000Y-55700000I-1600000J0D01*
G01*
X152700000Y-55700000D02*
G75*
G02*
X155900000Y-55700000I1600000J0D01*
G01*
X164150000Y-53800000D02*
G75*
G02*
X161650000Y-53800000I-1250000J0D01*
G01*
X161650000Y-53800000D02*
G75*
G02*
X164150000Y-53800000I1250000J0D01*
G01*
X164150000Y-57600000D02*
G75*
G02*
X161650000Y-57600000I-1250000J0D01*
G01*
X161650000Y-57600000D02*
G75*
G02*
X164150000Y-57600000I1250000J0D01*
G01*
X175400000Y-146800000D02*
G75*
G02*
X172200000Y-146800000I-1600000J0D01*
G01*
X172200000Y-146800000D02*
G75*
G02*
X175400000Y-146800000I1600000J0D01*
G01*
X197900000Y-53700000D02*
G75*
G02*
X194700000Y-53700000I-1600000J0D01*
G01*
X194700000Y-53700000D02*
G75*
G02*
X197900000Y-53700000I1600000J0D01*
G01*
X197900000Y-99700000D02*
G75*
G02*
X194700000Y-99700000I-1600000J0D01*
G01*
X194700000Y-99700000D02*
G75*
G02*
X197900000Y-99700000I1600000J0D01*
G01*
X197500000Y-50000000D02*
G75*
G02*
X200000000Y-52500000I0J-2500000D01*
G01*
X197500000Y-150000000D02*
X102500000Y-150000000D01*
X200000000Y-52500000D02*
X200000000Y-147500000D01*
X200000000Y-147500000D02*
G75*
G02*
X197500000Y-150000000I-2500000J0D01*
G01*
M02*
