M48
; DRILL file KiCad 10.99.0-unknown-f35c579a3f~188~ubuntu24.04.1 date 2026-05-20T13:28:46
; FORMAT={-:-/ absolute / metric / decimal}
; #@! TF.CreationDate,2026-05-20T13:28:46+02:00
; #@! TF.GenerationSoftware,Kicad,Pcbnew,10.99.0-unknown-f35c579a3f~188~ubuntu24.04.1
; #@! TF.FileFunction,MixedPlating,1,2
FMAT,2
METRIC
; #@! TA.AperFunction,Plated,PTH,ViaDrill
T1C0.400
; #@! TA.AperFunction,Plated,PTH,ComponentDrill
T2C0.750
; #@! TA.AperFunction,Plated,PTH,ComponentDrill
T3C0.800
; #@! TA.AperFunction,Plated,PTH,ComponentDrill
T4C0.864
; #@! TA.AperFunction,Plated,PTH,ComponentDrill
T5C1.000
; #@! TA.AperFunction,Plated,PTH,ComponentDrill
T6C1.200
%
G90
G05
T1
X103.257Y-96.334
X111.007Y-73.884
X111.007Y-83.584
X111.007Y-93.234
X112.007Y-106.584
X112.494Y-102.571
X113.007Y-76.084
X113.007Y-84.331
X114.507Y-97.084
X116.507Y-116.084
X118.007Y-75.084
X118.007Y-81.084
X119.007Y-79.584
X122.52Y-114.597
X123.007Y-121.584
X123.507Y-110.584
X128.782Y-94.334
X129.494Y-89.097
X129.507Y-83.584
X129.507Y-91.964
X132.007Y-75.584
X133.664Y-89.107
X134.007Y-81.584
X134.007Y-140.584
X134.114Y-91.584
X134.507Y-71.584
X134.52Y-109.571
X137.52Y-78.571
X138.507Y-85.084
X138.782Y-89.084
X139.48Y-95.557
X139.507Y-79.084
X140.007Y-66.084
X140.007Y-135.084
X140.232Y-82.413
X140.507Y-129.084
X144.507Y-69.084
X146.007Y-125.584
X146.507Y-91.084
X147.007Y-90.084
X147.02Y-85.071
X147.757Y-86.834
X149.007Y-127.084
X150.007Y-54.084
X151.507Y-86.084
X152.007Y-73.784
X152.782Y-89.084
X153.347Y-78.434
X154.48Y-80.557
X159.494Y-92.071
X160.494Y-91.071
X161.507Y-86.584
X161.507Y-89.084
X162.27Y-91.347
X162.507Y-110.084
X163.007Y-71.584
X163.507Y-98.112
X163.735Y-92.856
X163.994Y-87.571
X164.007Y-60.584
X166.007Y-124.084
X168.007Y-101.584
X169.007Y-85.084
X169.507Y-79.084
X169.507Y-89.109
X170.007Y-67.084
X170.007Y-73.584
X170.007Y-102.584
X172.007Y-128.584
X176.507Y-70.584
X176.507Y-104.084
X177.007Y-78.584
X177.007Y-88.084
X177.007Y-131.624
X177.507Y-98.309
X177.595Y-101.584
X177.982Y-80.584
X178.237Y-111.854
X179.495Y-104.597
X181.007Y-101.084
X181.507Y-119.584
X182.007Y-80.084
X183.007Y-65.934
X183.007Y-67.234
X183.007Y-73.284
X183.007Y-88.234
X183.007Y-94.284
X183.007Y-95.584
X187.007Y-75.584
X188.507Y-99.584
X193.007Y-79.084
T2
X128.867Y-71.824
X130.137Y-71.824
X131.407Y-71.824
X135.967Y-106.084
X137.237Y-106.084
X138.507Y-106.084
T3
X115.764Y-88.334
X115.764Y-90.834
X116.007Y-66.084
X116.007Y-68.584
X129.427Y-76.584
X132.264Y-88.834
X132.264Y-91.334
X139.007Y-60.504
X139.007Y-70.664
X139.587Y-76.584
X143.507Y-90.084
X143.507Y-92.584
X145.007Y-71.504
X145.007Y-81.664
X149.927Y-113.084
X149.927Y-121.084
X150.007Y-61.504
X150.007Y-71.664
X153.347Y-76.584
X160.087Y-113.084
X160.087Y-121.084
X163.507Y-76.584
X167.507Y-67.424
X167.507Y-77.584
X167.507Y-80.924
X167.507Y-91.084
X187.507Y-69.084
X187.507Y-71.584
X188.007Y-90.084
X188.007Y-92.584
T4
X130.507Y-63.284
X134.007Y-63.284
T5
X102.507Y-59.804
X102.507Y-62.344
X102.507Y-64.884
X102.507Y-67.424
X102.507Y-72.804
X102.507Y-75.344
X102.507Y-77.884
X102.507Y-83.774
X102.507Y-86.314
X102.507Y-88.854
X102.507Y-91.394
X104.507Y-106.584
X104.507Y-117.084
X104.507Y-119.624
X104.507Y-122.164
X104.507Y-124.704
X104.507Y-127.244
X104.507Y-129.784
X104.507Y-132.324
X104.507Y-134.864
X104.507Y-137.404
X104.507Y-139.944
X107.577Y-81.151
X107.577Y-83.691
X107.577Y-86.231
X107.577Y-88.771
X107.577Y-91.311
X107.577Y-93.851
X107.577Y-96.391
X107.577Y-98.931
X107.707Y-60.124
X107.707Y-62.664
X107.707Y-65.204
X107.707Y-67.744
X107.707Y-70.284
X107.707Y-72.824
X107.707Y-75.364
X107.707Y-77.904
X109.507Y-106.584
X120.277Y-81.151
X120.277Y-83.691
X120.277Y-86.231
X120.277Y-88.771
X120.277Y-91.311
X120.277Y-93.851
X120.277Y-96.391
X120.277Y-98.931
X120.407Y-60.124
X120.407Y-62.664
X120.407Y-65.204
X120.407Y-67.744
X120.407Y-70.284
X120.407Y-72.824
X120.407Y-75.364
X120.407Y-77.904
X124.207Y-81.164
X124.207Y-83.704
X124.207Y-86.244
X124.207Y-88.784
X124.207Y-91.324
X124.207Y-93.864
X124.207Y-96.404
X124.207Y-98.944
X124.407Y-60.244
X124.407Y-62.784
X124.407Y-65.324
X124.407Y-70.324
X124.407Y-72.864
X124.407Y-75.404
X124.407Y-77.944
X126.007Y-132.964
X126.007Y-135.504
X126.007Y-138.044
X126.007Y-140.584
X127.467Y-106.084
X130.007Y-106.084
X131.427Y-147.084
X132.547Y-106.084
X133.967Y-147.084
X136.507Y-147.084
X136.907Y-81.164
X136.907Y-83.704
X136.907Y-86.244
X136.907Y-88.784
X136.907Y-91.324
X136.907Y-93.864
X136.907Y-96.404
X136.907Y-98.944
X144.007Y-51.584
X144.507Y-105.544
X144.507Y-108.084
X144.507Y-110.624
X144.507Y-113.164
X144.507Y-115.704
X144.507Y-118.244
X144.507Y-120.784
X146.547Y-51.584
X149.087Y-51.584
X151.627Y-51.584
X154.167Y-51.584
X156.707Y-51.584
X172.302Y-66.889
X172.302Y-69.429
X172.302Y-71.969
X172.302Y-74.509
X172.302Y-77.049
X172.302Y-79.589
X172.302Y-82.129
X172.302Y-84.669
X172.302Y-87.209
X172.302Y-89.749
X172.302Y-92.289
X172.302Y-94.829
X172.302Y-97.369
X172.302Y-99.909
X172.302Y-102.449
X172.302Y-104.989
X172.302Y-107.529
X172.302Y-110.069
X172.302Y-112.609
X172.302Y-115.149
X174.842Y-66.889
X174.842Y-69.429
X174.842Y-71.969
X174.842Y-74.509
X174.842Y-77.049
X174.842Y-79.589
X174.842Y-82.129
X174.842Y-84.669
X174.842Y-87.209
X174.842Y-89.749
X174.842Y-92.289
X174.842Y-94.829
X174.842Y-97.369
X174.842Y-99.909
X174.842Y-102.449
X174.842Y-104.989
X174.842Y-107.529
X174.842Y-110.069
X174.842Y-112.609
X174.842Y-115.149
X180.307Y-59.304
X180.307Y-61.844
X180.307Y-64.384
X180.307Y-66.924
X180.307Y-69.464
X180.307Y-72.004
X180.307Y-74.544
X180.307Y-77.084
X180.307Y-81.304
X180.307Y-83.844
X180.307Y-86.384
X180.307Y-88.924
X180.307Y-91.464
X180.307Y-94.004
X180.307Y-96.544
X180.307Y-99.084
X180.507Y-106.504
X180.507Y-109.044
X180.507Y-111.584
X180.507Y-114.124
X180.507Y-116.664
X186.507Y-129.084
X186.507Y-131.624
X186.507Y-134.164
X186.507Y-136.704
X186.507Y-139.244
X186.507Y-141.784
X193.007Y-59.304
X193.007Y-61.844
X193.007Y-64.384
X193.007Y-66.924
X193.007Y-69.464
X193.007Y-72.004
X193.007Y-74.544
X193.007Y-77.084
X193.007Y-81.304
X193.007Y-83.844
X193.007Y-86.384
X193.007Y-88.924
X193.007Y-91.464
X193.007Y-94.004
X193.007Y-96.544
X193.007Y-99.084
X197.507Y-59.304
X197.507Y-61.844
X197.507Y-64.384
X197.507Y-66.924
X197.507Y-72.264
X197.507Y-74.804
X197.507Y-77.344
X198.007Y-81.804
X198.007Y-84.344
X198.007Y-86.884
X198.007Y-89.424
T6
X134.307Y-54.286
X134.307Y-56.826
X140.107Y-54.284
X140.107Y-56.826
X143.507Y-147.084
X147.507Y-147.084
X150.507Y-147.084
X154.507Y-147.084
X160.007Y-54.284
X160.007Y-56.826
X165.807Y-54.284
X165.807Y-56.824
M30
